<svg xmlns="http://www.w3.org/2000/svg" width="40" height="40" viewBox="0 0 40 40">
  <defs>
    <style>
      .cls-1 {
        fill: #fff;
        fill-rule: evenodd;
      }
    </style>
  </defs>
  <path id="fb" class="cls-1" d="M854.816,867.7l-3.094,0a6.66,6.66,0,0,0-4.909,1.913,6.982,6.982,0,0,0-1.853,5v1.664h-2.066a1.531,1.531,0,0,0-1.529,1.529v3.922a1.531,1.531,0,0,0,1.529,1.53h2.066v8.853a1.531,1.531,0,0,0,1.529,1.529h4.056a1.531,1.531,0,0,0,1.529-1.529v-8.854h2.593a1.53,1.53,0,0,0,1.529-1.528V877.8a1.528,1.528,0,0,0-1.54-1.529h-2.583v-1.252a1.87,1.87,0,0,1,.052-0.546,1.661,1.661,0,0,1,.605-0.074h2.083a1.53,1.53,0,0,0,1.528-1.529v-3.642A1.532,1.532,0,0,0,854.816,867.7Zm-4.255,5.386a2.8,2.8,0,0,0-.572,1.935v2.217a1.122,1.122,0,0,0,1.12,1.121h3v2.809h-3a1.122,1.122,0,0,0-1.121,1.12v9.262h-2.944V882.29a1.121,1.121,0,0,0-1.12-1.12H843.45v-2.809h2.475a1.122,1.122,0,0,0,1.12-1.121v-2.629a4.955,4.955,0,0,1,1.252-3.541,4.628,4.628,0,0,1,3.423-1.287l2.537,0v2.53H852.73A2.785,2.785,0,0,0,850.561,873.088ZM849.987,860a20.006,20.006,0,1,0,20,20.006A20,20,0,0,0,849.987,860Zm12.538,32.549a17.676,17.676,0,1,1,3.8-5.639A17.666,17.666,0,0,1,862.525,892.544Z" transform="translate(-830 -860)"/>
</svg>
