<svg xmlns="http://www.w3.org/2000/svg" width="40" height="40" viewBox="0 0 40 40">
  <defs>
    <style>
      .cls-1 {
        fill: #fff;
        fill-rule: evenodd;
      }
    </style>
  </defs>
  <path id="ig" class="cls-1" d="M899.987,874.7a5.3,5.3,0,1,0,5.3,5.3A5.309,5.309,0,0,0,899.987,874.7Zm3.166,5.3a3.167,3.167,0,1,1-3.166-3.168A3.17,3.17,0,0,1,903.153,880Zm6.463-6.613a5.287,5.287,0,0,0-3.019-3.021,7.563,7.563,0,0,0-2.48-.476c-1.07-.048-1.426-0.06-4.13-0.06s-3.06.012-4.13,0.06a7.553,7.553,0,0,0-2.48.476,5.285,5.285,0,0,0-3.02,3.021,7.564,7.564,0,0,0-.476,2.481c-0.049,1.069-.06,1.425-0.06,4.132s0.011,3.062.06,4.131a7.554,7.554,0,0,0,.476,2.481,5.278,5.278,0,0,0,3.02,3.021,7.553,7.553,0,0,0,2.48.476c1.069,0.049,1.424.06,4.13,0.06s3.061-.011,4.13-0.06a7.558,7.558,0,0,0,2.48-.476,5.28,5.28,0,0,0,3.019-3.021,7.554,7.554,0,0,0,.476-2.481c0.049-1.07.06-1.426,0.06-4.131s-0.011-3.061-.06-4.132A7.564,7.564,0,0,0,909.616,873.388Zm-1.6,6.613c0,2.668-.01,2.983-0.058,4.034a5.359,5.359,0,0,1-.333,1.805,3.144,3.144,0,0,1-1.8,1.8,5.363,5.363,0,0,1-1.8.334c-1.051.047-1.366,0.058-4.033,0.058s-2.983-.011-4.033-0.058a5.365,5.365,0,0,1-1.8-.334,3.151,3.151,0,0,1-1.8-1.8,5.385,5.385,0,0,1-.333-1.805c-0.048-1.051-.058-1.366-0.058-4.034s0.01-2.984.058-4.035a5.372,5.372,0,0,1,.333-1.8,3.149,3.149,0,0,1,1.8-1.8,5.372,5.372,0,0,1,1.8-.333c1.051-.048,1.366-0.058,4.033-0.058s2.982,0.01,4.033.058a5.37,5.37,0,0,1,1.8.333,3.142,3.142,0,0,1,1.8,1.8,5.346,5.346,0,0,1,.333,1.8C908.007,877.017,908.017,877.333,908.017,880Zm-2.693-6.707a1.367,1.367,0,1,0,1.367,1.367A1.368,1.368,0,0,0,905.324,873.294ZM899.987,860a20.006,20.006,0,1,0,20,20.006A20,20,0,0,0,899.987,860Zm12.538,32.549a17.676,17.676,0,1,1,3.8-5.639A17.666,17.666,0,0,1,912.525,892.544Z" transform="translate(-880 -860)"/>
</svg>
