<svg xmlns="http://www.w3.org/2000/svg" width="260" height="233" viewBox="0 0 260 233">
  <defs>
    <style>
      .cls-1 {
        fill: #fff;
        fill-rule: evenodd;
      }
    </style>
  </defs>
  <path id="logo" class="cls-1" d="M133.405,0.174A67.9,67.9,0,0,0,65.8,62.782L3.837,0.832A2.248,2.248,0,0,0,0,2.421V133.554A2.248,2.248,0,0,0,2.248,135.8H133.405a2.215,2.215,0,0,0,.59-0.088c0.046-.013.091-0.027,0.136-0.042a2.292,2.292,0,0,0,.507-0.241l0.018-.01a2.218,2.218,0,0,0,.428-0.387c0.032-.035.061-0.071,0.09-0.108a2.249,2.249,0,0,0,.306-0.51,0,0,0,0,1,0,0s0,0,0-.007a2.211,2.211,0,0,0,.141-0.564c0.007-.05.012-0.1,0.015-0.15s0.014-.091.014-0.139V2.421A2.248,2.248,0,0,0,133.405.174Zm-2.248,127.955-57.9-57.894h57.9v57.894Zm0-123.422V65.741H70.113A63.411,63.411,0,0,1,131.157,4.707ZM4.5,7.846L65.579,68.918V83.635a35.011,35.011,0,0,0-61.083,0V7.846ZM65.579,100.77A30.542,30.542,0,1,1,35.037,70.235,30.574,30.574,0,0,1,65.579,100.77ZM4.5,131.307v-13.4a35.285,35.285,0,0,0,13.4,13.4H4.5Zm61.083-13.4v13.4h-13.4A35.284,35.284,0,0,0,65.579,117.906Zm4.5,13.4V73.413l57.905,57.894h-57.9ZM5.035,220.66A5.034,5.034,0,1,1,0,225.7,5.048,5.048,0,0,1,5.035,220.66Zm0,9.332a4.3,4.3,0,1,0-4.3-4.291A4.306,4.306,0,0,0,5.035,229.992Zm10.239-8.974a0.211,0.211,0,0,1,.239-0.239h6.324a0.222,0.222,0,0,1,.258.246v0.23a0.234,0.234,0,0,1-.258.246H16v4.94h4.724a0.22,0.22,0,0,1,.245.252v0.237a0.224,0.224,0,0,1-.245.246H16v3.194a0.216,0.216,0,0,1-.252.232H15.512a0.209,0.209,0,0,1-.239-0.232v-9.352Zm11.592,0a0.219,0.219,0,0,1,.245-0.239h0.239a0.221,0.221,0,0,1,.244.239v9.346a0.213,0.213,0,0,1-.244.238H27.11a0.213,0.213,0,0,1-.245-0.238v-9.346Zm14.109,0.912a0.243,0.243,0,0,1-.066.145,0.809,0.809,0,0,1-.331.319H40.551a0.217,0.217,0,0,1-.133-0.053,4.222,4.222,0,0,0-2.613-.933,4.292,4.292,0,1,0-.073,8.584,4.406,4.406,0,0,0,2.607-.892l0.165-.092a0.31,0.31,0,0,1,.106-0.034,0.651,0.651,0,0,1,.37.5,0.249,0.249,0,0,1-.119.193,4.947,4.947,0,0,1-3.116,1.071,5.037,5.037,0,0,1,.006-10.074,5.122,5.122,0,0,1,3.116,1.086A0.219,0.219,0,0,1,40.974,221.93Zm4.855-.912a0.219,0.219,0,0,1,.245-0.239h0.239a0.221,0.221,0,0,1,.245.239v9.346a0.213,0.213,0,0,1-.245.238H46.074a0.213,0.213,0,0,1-.245-0.238v-9.346Zm7.1,1.163v8.183a0.213,0.213,0,0,1-.245.238H52.45a0.213,0.213,0,0,1-.245-0.238v-9.585a0.181,0.181,0,0,1,.172-0.225,0.236,0.236,0,0,1,.165.074c2.361,2.883,4.7,5.721,7.059,8.6v-8.214a0.213,0.213,0,0,1,.244-0.239h0.238a0.211,0.211,0,0,1,.239.239v9.637a0.185,0.185,0,0,1-.186.205,0.215,0.215,0,0,1-.179-0.087ZM65.5,230.6c-0.147,0-.219-0.054-0.219-0.165a0.366,0.366,0,0,1,.007-0.1,0.137,0.137,0,0,1,.014-0.04l3.9-9.352a0.232,0.232,0,0,1,.257-0.172h0.219a0.245,0.245,0,0,1,.271.192c1.29,3.128,2.574,6.2,3.876,9.325a1.033,1.033,0,0,1,.02.152,0.163,0.163,0,0,1-.2.16H65.5Zm4.075-8.626c-0.813,1.952-2.236,5.365-3.268,7.912h6.523Zm17.16-.946a0.226,0.226,0,0,1,.218-0.251h3.189A4.912,4.912,0,1,1,90.1,230.6H86.988a0.221,0.221,0,0,1-.251-0.206V221.03Zm3.341,8.858a4.227,4.227,0,0,0,4.246-4.228,4.158,4.158,0,0,0-4.227-4.166H87.471v8.394h2.607Zm16.856-9.109a0.22,0.22,0,0,1,.251.246v0.23a0.225,0.225,0,0,1-.251.246H101.04v4.933H105.8a0.225,0.225,0,0,1,.252.252v0.238a0.228,0.228,0,0,1-.252.245H101.04v2.712h6a0.219,0.219,0,0,1,.251.244v0.239a0.212,0.212,0,0,1-.244.238h-6.53a0.2,0.2,0,0,1-.212-0.232v-9.352a0.209,0.209,0,0,1,.245-0.239h6.384Zm12.84,9.823c-0.146,0-.218-0.054-0.218-0.165a0.361,0.361,0,0,1,.007-0.1,0.1,0.1,0,0,1,.012-0.04l3.9-9.352a0.233,0.233,0,0,1,.259-0.172h0.218a0.244,0.244,0,0,1,.271.192c1.291,3.128,2.573,6.2,3.877,9.325a1.188,1.188,0,0,1,.02.152c0,0.106-.066.16-0.206,0.16h-8.143Zm4.074-8.626c-0.813,1.952-2.235,5.365-3.267,7.912H127.1Zm14.787,5.629,1.27,2.685a0.559,0.559,0,0,1,.019.12,0.183,0.183,0,0,1-.191.192h-0.39a0.21,0.21,0,0,1-.193-0.139l-1.19-2.52a3.743,3.743,0,0,1-1.4.244h-2.7v2.163a0.227,0.227,0,0,1-.259.252h-0.244a0.225,0.225,0,0,1-.252-0.252v-9.3a0.259,0.259,0,0,1,.232-0.272h3.221a3.682,3.682,0,0,1,3.784,3.711A3.641,3.641,0,0,1,138.635,227.605Zm-2.078-.172a2.954,2.954,0,1,0,0-5.907h-2.7v5.907h2.7Zm13.613-6.773a5.027,5.027,0,0,1,.357,10.041v1.555a0.222,0.222,0,0,1-.244.244h-0.239a0.217,0.217,0,0,1-.237-0.251V230.7A5.027,5.027,0,0,1,150.17,220.66Zm0,9.332a4.3,4.3,0,1,0-4.3-4.291A4.309,4.309,0,0,0,150.17,229.992Zm10.713-3.306a3.3,3.3,0,1,0,6.6,0v-5.668a0.226,0.226,0,0,1,.251-0.239h0.219a0.237,0.237,0,0,1,.265.239v5.747a3.956,3.956,0,0,1-4.036,4,4.026,4.026,0,0,1-4.028-4.022v-5.721a0.22,0.22,0,0,1,.23-0.239h0.252a0.232,0.232,0,0,1,.246.239v5.668Zm12.909-5.668a0.218,0.218,0,0,1,.244-0.239h0.238a0.222,0.222,0,0,1,.246.239v9.346a0.213,0.213,0,0,1-.246.238h-0.238a0.212,0.212,0,0,1-.244-0.238v-9.346Zm12.032-.239a0.226,0.226,0,0,1,.259.239v0.232a0.236,0.236,0,0,1-.259.251h-2.792v8.863a0.212,0.212,0,0,1-.244.238H182.55a0.21,0.21,0,0,1-.238-0.238V221.5h-2.885a0.219,0.219,0,0,1-.244-0.251v-0.232a0.213,0.213,0,0,1,.244-0.239h6.4Zm11.63,0a0.221,0.221,0,0,1,.252.246v0.23a0.226,0.226,0,0,1-.252.246H191.56v4.933h4.763a0.224,0.224,0,0,1,.251.252v0.238a0.227,0.227,0,0,1-.251.245H191.56v2.712h6a0.22,0.22,0,0,1,.252.244v0.239a0.213,0.213,0,0,1-.245.238h-6.529a0.2,0.2,0,0,1-.213-0.232v-9.352a0.209,0.209,0,0,1,.245-0.239h6.384Zm12.615,1.151a0.248,0.248,0,0,1-.067.145,0.807,0.807,0,0,1-.33.319h-0.026a0.216,0.216,0,0,1-.133-0.053,4.227,4.227,0,0,0-2.613-.933,4.292,4.292,0,1,0-.072,8.584,4.408,4.408,0,0,0,2.606-.892l0.165-.092a0.313,0.313,0,0,1,.106-0.034,0.653,0.653,0,0,1,.37.5,0.249,0.249,0,0,1-.119.193,4.943,4.943,0,0,1-3.116,1.071,5.037,5.037,0,0,1,.007-10.074,5.125,5.125,0,0,1,3.116,1.086A0.218,0.218,0,0,1,210.069,221.93Zm10.963-1.151a0.226,0.226,0,0,1,.258.239v0.232a0.235,0.235,0,0,1-.258.251H218.24v8.863a0.213,0.213,0,0,1-.245.238h-0.238a0.21,0.21,0,0,1-.238-0.238V221.5h-2.885a0.219,0.219,0,0,1-.244-0.251v-0.232a0.213,0.213,0,0,1,.244-0.239h6.4Zm5.562,5.907a3.3,3.3,0,1,0,6.6,0v-5.668a0.227,0.227,0,0,1,.252-0.239h0.218a0.237,0.237,0,0,1,.264.239v5.747a3.955,3.955,0,0,1-4.034,4,4.027,4.027,0,0,1-4.03-4.022v-5.721a0.221,0.221,0,0,1,.232-0.239h0.251a0.231,0.231,0,0,1,.245.239v5.668Zm18.426,0.919,1.27,2.685a0.551,0.551,0,0,1,.021.12,0.185,0.185,0,0,1-.193.192h-0.39a0.208,0.208,0,0,1-.191-0.139l-1.191-2.52a3.743,3.743,0,0,1-1.4.244h-2.7v2.163a0.226,0.226,0,0,1-.257.252h-0.246a0.224,0.224,0,0,1-.25-0.252v-9.3a0.258,0.258,0,0,1,.23-0.272h3.222a3.683,3.683,0,0,1,3.784,3.711A3.642,3.642,0,0,1,245.02,227.605Zm-2.077-.172a2.954,2.954,0,1,0,0-5.907h-2.7v5.907h2.7Zm8.709,3.169c-0.146,0-.219-0.054-0.219-0.165a0.361,0.361,0,0,1,.007-0.1,0.134,0.134,0,0,1,.014-0.04l3.9-9.352a0.231,0.231,0,0,1,.257-0.172h0.219a0.244,0.244,0,0,1,.271.192c1.29,3.128,2.574,6.2,3.876,9.325a1.033,1.033,0,0,1,.02.152,0.163,0.163,0,0,1-.2.16h-8.144Zm4.075-8.626c-0.813,1.952-2.236,5.365-3.268,7.912h6.522ZM0,192.381a0.581,0.581,0,0,1,.583-0.654h13.6a0.581,0.581,0,0,1,.639.669v2.261a0.658,0.658,0,0,1-.653.683H3.912v6.954h7.924a0.59,0.59,0,0,1,.64.641v2.2a0.64,0.64,0,0,1-.626.669H3.912v6.428a0.568,0.568,0,0,1-.668.612H0.569A0.526,0.526,0,0,1,0,212.25V192.381Zm29.71-.639a8.422,8.422,0,0,1,8.422,8.391,8.316,8.316,0,0,1-3.173,6.542l2.59,5.163a1.618,1.618,0,0,1,.227.555,0.48,0.48,0,0,1-.555.455h-3.03a0.712,0.712,0,0,1-.711-0.541L31.5,208.283a6.754,6.754,0,0,1-1.793.255H25.43v3.7a0.557,0.557,0,0,1-.655.612H22.144a0.548,0.548,0,0,1-.627-0.612V192.41a0.577,0.577,0,0,1,.627-0.668h7.567Zm0.343,3.441a11.341,11.341,0,0,0-1.58-.114H25.43v10.055h4.1a4.826,4.826,0,0,0,4.808-5.02A4.978,4.978,0,0,0,30.054,195.183Zm44.052,4.609v12.387a0.6,0.6,0,0,1-.683.669h-2.5a0.585,0.585,0,0,1-.654-0.669V191.585a0.5,0.5,0,0,1,.455-0.612,0.523,0.523,0,0,1,.4.2L84.6,205.139V192.41a0.6,0.6,0,0,1,.682-0.683h2.5a0.59,0.59,0,0,1,.656.683v20.666a0.49,0.49,0,0,1-.456.6,0.52,0.52,0,0,1-.4-0.2ZM113.592,194a0.9,0.9,0,0,1-.142.4l-1.436,2.091a0.566,0.566,0,0,1-.442.284,0.809,0.809,0,0,1-.454-0.156,7.117,7.117,0,0,0-4.112-1.394,7.069,7.069,0,0,0-.157,14.137,7.3,7.3,0,0,0,4.1-1.322l0.471-.256c0.041,0,.07-0.014.113-0.014a7.326,7.326,0,0,1,2.062,2.844,0.647,0.647,0,0,1-.341.541,10.953,10.953,0,0,1-6.316,2,10.866,10.866,0,1,1,6.3-19.712A0.663,0.663,0,0,1,113.592,194Zm-50.22,17.961-8.479-19.752s-0.324-.735-0.509-1.116a0.6,0.6,0,0,0-.565-0.34c-0.005,0-.009,0-0.014,0s-0.009,0-.014,0a0.6,0.6,0,0,0-.565.34c-0.184.381-.508,1.116-0.508,1.116l-8.479,19.752a1.439,1.439,0,0,0-.07.325c0,0.268.155,0.424,0.565,0.424H62.877c0.41,0,.565-0.156.565-0.424A1.439,1.439,0,0,0,63.372,211.963Zm-14.041-2.487,0.971-2.613,3.108-7.87c0.128-.382.269-0.736,0.4-1.089,0.127,0.353.268,0.707,0.4,1.089l3.108,7.87,0.971,2.613H49.331Zm71.509-17.095a0.59,0.59,0,0,1,.626-0.654h13.913a0.585,0.585,0,0,1,.654.669v2.261a0.653,0.653,0,0,1-.669.683h-10.6v7.1H133.1a0.553,0.553,0,0,1,.627.6v2.048a0.611,0.611,0,0,1-.627.612h-8.335v3.556H135.62a0.571,0.571,0,0,1,.641.654v2.3a0.62,0.62,0,0,1-.669.641H121.466a0.559,0.559,0,0,1-.626-0.612V192.381Zm29.237,17.238c2.276,0,3.427-1.094,3.427-2.731,0-1.777-1.564-2.5-3.285-3.271-4.325-1.749-6.586-3.328-6.586-6.8,0-3.315,2.787-5.532,6.329-5.532a7.984,7.984,0,0,1,4.368,1.236c0.826,0.569,1.764,1.479,1.764,2.006a0.717,0.717,0,0,1-.285.569l-1.35,1.422a0.52,0.52,0,0,1-.371.185,0.768,0.768,0,0,1-.54-0.312l-0.058-.043a4.591,4.591,0,0,0-3.428-1.622c-1.536,0-2.6.825-2.6,2.233,0,1.451,1.139,1.991,3.343,2.944l1.238,0.541c3.214,1.393,5.42,3.014,5.42,6.3,0,3.912-3.073,6.443-7.4,6.443a8.77,8.77,0,0,1-7.311-3.783c-0.014,0-.014-0.014-0.028-0.014a0.99,0.99,0,0,1-.271-0.512,0.732,0.732,0,0,1,.341-0.541l1.693-1.408a0.752,0.752,0,0,1,.4-0.142,0.832,0.832,0,0,1,.541.3A6.05,6.05,0,0,0,150.077,209.619ZM181.142,194a0.893,0.893,0,0,1-.142.4l-1.437,2.091a0.565,0.565,0,0,1-.441.284,0.814,0.814,0,0,1-.455-0.156,7.109,7.109,0,0,0-4.111-1.394,7.069,7.069,0,0,0-.156,14.137,7.292,7.292,0,0,0,4.095-1.322l0.471-.256c0.043,0,.072-0.014.113-0.014a7.328,7.328,0,0,1,2.063,2.844,0.646,0.646,0,0,1-.342.541,10.95,10.95,0,0,1-6.315,2,10.866,10.866,0,1,1,6.3-19.712A0.663,0.663,0,0,1,181.142,194Zm7.275-1.649a0.614,0.614,0,0,1,.627-0.626h2.618a0.67,0.67,0,0,1,.668.626v12.678h9.958V192.353a0.617,0.617,0,0,1,.641-0.626h2.587a0.645,0.645,0,0,1,.7.611v19.884a0.581,0.581,0,0,1-.682.626h-2.6a0.574,0.574,0,0,1-.641-0.626v-3.508H192.33v3.508a0.586,0.586,0,0,1-.7.626h-2.589a0.554,0.554,0,0,1-.627-0.584V192.353Zm26.509,0a0.589,0.589,0,0,1,.625-0.626h2.6a0.662,0.662,0,0,1,.683.626v19.869a0.582,0.582,0,0,1-.683.626h-2.6a0.557,0.557,0,0,1-.625-0.626V192.353Zm16.427,7.439v12.387a0.6,0.6,0,0,1-.682.669h-2.5a0.586,0.586,0,0,1-.656-0.669V191.585a0.5,0.5,0,0,1,.456-0.612,0.526,0.526,0,0,1,.4.2l13.485,13.967V192.41a0.6,0.6,0,0,1,.683-0.683h2.5a0.59,0.59,0,0,1,.655.683v20.666a0.49,0.49,0,0,1-.456.6,0.518,0.518,0,0,1-.4-0.2Zm23.057-7.439a0.59,0.59,0,0,1,.627-0.626h2.6a0.662,0.662,0,0,1,.684.626v19.869a0.582,0.582,0,0,1-.684.626h-2.6a0.558,0.558,0,0,1-.627-0.626V192.353Zm-206.925-9.1L39.006,163.5s-0.325-.735-0.509-1.115a0.594,0.594,0,0,0-.565-0.34,0.068,0.068,0,0,0-.014,0,0.067,0.067,0,0,0-.014,0,0.594,0.594,0,0,0-.565.34c-0.184.38-.509,1.115-0.509,1.115l-8.479,19.752a1.451,1.451,0,0,0-.07.326c0,0.268.155,0.423,0.565,0.423H46.99c0.41,0,.565-0.155.565-0.423A1.451,1.451,0,0,0,47.485,183.255Zm-14.041-2.486,0.971-2.614,3.108-7.87c0.128-.382.269-0.735,0.4-1.088,0.127,0.353.268,0.706,0.4,1.088l3.108,7.87,0.971,2.614H33.444Zm27.9-17.732a8.378,8.378,0,0,1,8.376,8.347,8.272,8.272,0,0,1-3.155,6.508l2.575,5.135a1.656,1.656,0,0,1,.227.552,0.479,0.479,0,0,1-.553.453H65.8a0.708,0.708,0,0,1-.707-0.538l-1.966-4a6.739,6.739,0,0,1-1.784.254H57.087v3.679a0.554,0.554,0,0,1-.652.608H53.818a0.544,0.544,0,0,1-.622-0.608V163.7a0.573,0.573,0,0,1,.622-0.665h7.528Zm0.34,3.424a11.07,11.07,0,0,0-1.57-.114H57.087v10h4.074a4.8,4.8,0,0,0,4.784-4.994A4.951,4.951,0,0,0,61.686,166.461ZM79.6,159.7a0.835,0.835,0,0,1-.751.595H76.7c-0.383,0-.468-0.127-0.468-0.4a1.829,1.829,0,0,1,.157-0.509l1.244-2.9a0.843,0.843,0,0,1,.765-0.594h2.249a0.3,0.3,0,0,1,.369.311,0.88,0.88,0,0,1-.128.523Zm-3.3,3.948a0.586,0.586,0,0,1,.622-0.623h2.59a0.659,0.659,0,0,1,.68.623V183.41a0.579,0.579,0,0,1-.68.622h-2.59a0.554,0.554,0,0,1-.622-0.622V163.645Zm28.533,19.61L96.358,163.5s-0.324-.735-0.509-1.115a0.594,0.594,0,0,0-.565-0.34,0.067,0.067,0,0,0-.014,0,0.068,0.068,0,0,0-.014,0,0.594,0.594,0,0,0-.565.34c-0.184.38-.509,1.115-0.509,1.115L85.7,183.255a1.453,1.453,0,0,0-.07.326c0,0.268.155,0.423,0.565,0.423h18.143c0.41,0,.565-0.155.565-0.423A1.456,1.456,0,0,0,104.837,183.255ZM90.8,180.769l0.971-2.614,3.108-7.87c0.128-.382.269-0.735,0.4-1.088,0.127,0.353.268,0.706,0.4,1.088l3.108,7.87,0.971,2.614H90.8Zm45.384-15.483a0.886,0.886,0,0,1-.142.4l-1.428,2.08a0.564,0.564,0,0,1-.439.283,0.809,0.809,0,0,1-.453-0.156,7.072,7.072,0,0,0-4.089-1.386,7.032,7.032,0,0,0-.156,14.063,7.25,7.25,0,0,0,4.074-1.316l0.468-.255c0.043,0,.072-0.013.113-0.013a7.294,7.294,0,0,1,2.052,2.829,0.643,0.643,0,0,1-.34.538,10.891,10.891,0,0,1-6.282,1.994,10.809,10.809,0,1,1,6.268-19.609A0.662,0.662,0,0,1,136.18,165.286Zm6.078-1.613a0.587,0.587,0,0,1,.622-0.651h13.839a0.582,0.582,0,0,1,.651.666v2.248a0.649,0.649,0,0,1-.666.68H146.163v7.059h8.292a0.55,0.55,0,0,1,.622.595v2.037a0.606,0.606,0,0,1-.622.609h-8.292v3.537h10.8a0.567,0.567,0,0,1,.636.651V183.4a0.617,0.617,0,0,1-.665.637H142.88a0.555,0.555,0,0,1-.622-0.608V163.673Zm21.329-.028a0.612,0.612,0,0,1,.653-0.623h2.6a0.613,0.613,0,0,1,.637.623v16.736h8.745a0.606,0.606,0,0,1,.622.637V183.4a0.622,0.622,0,0,1-.622.637H164.211a0.555,0.555,0,0,1-.624-0.622V163.645Zm18.758,0.028a0.587,0.587,0,0,1,.623-0.651h13.839a0.582,0.582,0,0,1,.651.666v2.248a0.649,0.649,0,0,1-.666.68H186.25v7.059h8.293a0.551,0.551,0,0,1,.622.595v2.037a0.606,0.606,0,0,1-.622.609H186.25v3.537h10.8a0.566,0.566,0,0,1,.635.651V183.4a0.616,0.616,0,0,1-.664.637H182.968a0.555,0.555,0,0,1-.623-0.608V163.673ZM210.3,180.82c2.263,0,3.41-1.088,3.41-2.716,0-1.769-1.557-2.49-3.269-3.255-4.3-1.739-6.551-3.309-6.551-6.762,0-3.3,2.773-5.5,6.3-5.5a7.94,7.94,0,0,1,4.345,1.23c0.821,0.566,1.754,1.472,1.754,2a0.708,0.708,0,0,1-.283.565l-1.344,1.415a0.51,0.51,0,0,1-.369.184,0.764,0.764,0,0,1-.537-0.311l-0.056-.042a4.571,4.571,0,0,0-3.411-1.613c-1.529,0-2.589.82-2.589,2.221,0,1.443,1.132,1.98,3.326,2.928l1.23,0.538c3.2,1.386,5.393,3,5.393,6.267,0,3.891-3.058,6.41-7.36,6.41a8.73,8.73,0,0,1-7.273-3.764c-0.014,0-.014-0.014-0.028-0.014a0.992,0.992,0,0,1-.27-0.509,0.73,0.73,0,0,1,.341-0.538l1.684-1.4a0.744,0.744,0,0,1,.395-0.141,0.831,0.831,0,0,1,.539.3A6.016,6.016,0,0,0,210.3,180.82Zm11.58-17.175a0.6,0.6,0,0,1,.651-0.623h14.405a0.641,0.641,0,0,1,.68.623v2.264a0.676,0.676,0,0,1-.68.707h-5.207v16.765a0.636,0.636,0,0,1-.666.651h-2.574a0.641,0.641,0,0,1-.652-0.651V166.616h-5.306a0.627,0.627,0,0,1-.651-0.707v-2.264Zm21.108,0.028a0.587,0.587,0,0,1,.622-0.651h13.841a0.582,0.582,0,0,1,.65.666v2.248a0.649,0.649,0,0,1-.665.68H246.889v7.059h8.292a0.551,0.551,0,0,1,.623.595v2.037a0.607,0.607,0,0,1-.623.609h-8.292v3.537h10.8a0.568,0.568,0,0,1,.638.651V183.4a0.617,0.617,0,0,1-.665.637H243.605a0.556,0.556,0,0,1-.622-0.608V163.673ZM22.152,162.265a0.682,0.682,0,0,0-.767.281L11.32,177.924,1.254,162.546A0.682,0.682,0,0,0,0,162.919v20.488a0.525,0.525,0,0,0,.569.6H3.341a0.525,0.525,0,0,0,.569-0.6V172.761l7.114,11.265a0.333,0.333,0,0,0,.281.155c0.005,0,.009,0,0.015,0s0.01,0,.015,0a0.333,0.333,0,0,0,.281-0.155l7.114-11.265v10.646a0.525,0.525,0,0,0,.569.6H22.07a0.525,0.525,0,0,0,.569-0.6V162.919A0.683,0.683,0,0,0,22.152,162.265Z"/>
</svg>
